<svg id="Capa_1" data-name="Capa 1" xmlns="http://www.w3.org/2000/svg" viewBox="0 0 380.7 313.8"><title>icon-home</title><path d="M285.85,254.5H155.25a9.77,9.77,0,0,0-9.7,9.7V501.5a9.71,9.71,0,0,0,9.7,9.7H286a9.46,9.46,0,0,0,9.7-9.4V264.2a9.73,9.73,0,0,0-9.8-9.7Z" transform="translate(-107.95 -254.5)" style="fill:#010101"/><path d="M441.55,511.6a9.65,9.65,0,0,0,9.7-9.7V264.7a9.65,9.65,0,0,0-9.7-9.7H311c-5.5,0-9.7,3.9-9.7,9.2V502.6a10.1,10.1,0,0,0,9.7,9Z" transform="translate(-107.95 -254.5)" style="fill:#010101"/><path d="M295.65,568.3v-55a15.37,15.37,0,0,1-9.7,3.5H155.25A15.36,15.36,0,0,1,140,501.5V282.9H108V540.3l166.3.1a2.71,2.71,0,0,1,2.6,1.8c3.4,9.2,7.2,16,11,20.4,2.7,3.1,5.3,4.9,7.8,5.7" transform="translate(-107.95 -254.5)" style="fill:#010101"/><path d="M301.15,568.3c2.5-.8,5-2.6,7.7-5.7,3.8-4.3,7.6-11.1,11-20.4a2.8,2.8,0,0,1,2.6-1.8l166.2-.1V282.9h-31.8v219a15.36,15.36,0,0,1-15.3,15.3H310.85a14.53,14.53,0,0,1-9.7-3.6v54.7" transform="translate(-107.95 -254.5)" style="fill:#010101"/></svg>